<svg xmlns="http://www.w3.org/2000/svg" width="230mm" height="200mm" viewBox="0 0 230 200"><path d="M22 189c-20 2-18-23-17-37-1-27 0-55 1-83L5 24c6-20 30-12 45-14 16-1 31 5 46-1 32 0 64 0 96-2 15-2 34 7 32 24 1 22-4 47 0 69l-2 49c4 15-1 35-17 38h-96c-16-1-31-2-47 1-12-2-24 0-36 0l-2 1h-2zm23-11c17 0 34-5 51-3 13 1 26-1 40-2l40 2c13-2 34 2 37-15s3-34 3-52c-3-9-13 16-17 22-7 11-17 24-30 28-13 5-28 2-41-1l-39-2c-15-2-29-7-44-8-9 1-34-13-28 6-2 14 3 29 21 24l7 1zm148-4zm-36-19c4-4 7 0 11-7 16 1 18-22 30-32 4-10 22-21 14-32l-22 35c-4 5-12 27-14 21 5-15 13-29 23-41 1-12 17-16 14-28-8 11-14 24-21 35-12 12-14 32-31 36-14 4-28-2-39-10-12-13-29-19-43-7-6 3-9 14-15 2-13-16-26 3-40 3-16-3 9 6 14 1 7-9 25-6 23 5-7-9-19-2-28 1 13-3 32 11 41-3 12-12 30-10 42 0 11 8 25 13 39 13 4-2 22-12 14-3-3 4-20 5-12 11zm56-84zm-78 79c-11-5-23-14-35-20-7-2-29 6-25 11 11-8 27-8 37 1 11 3 11 7 23 8zm-26-4c-6-6-18-9-25-3 8 2 17 3 25 3zm42-8c15 2 22-13 29-23l24-40c12-12 7-26 8-41-3-23-26-15-40-15-20 5-41 2-61 2-19 2-37 4-55 2-13 4-40-10-41 11 1 16-2 31 1 47 4 8-3 29 8 14l31-29c6-4 7-24 13-10 19 3 34-12 52-10 10 2 16 17 25 5 17-10 25 12 40 13 7 0 29-16 19-2-10 9-27 11-36-1-11-17-28 0-37 11l-34 37c-3 8 14 2 17 10 12 8 21 19 37 19zm1-34c-6-8-17-11-23-12 11-9 21 9 30 11l-7 1zm5-14c-7-6-12-10-19-8 9-13 18 9 30 8 1 4-10 0-11 0zm17-6c-11-2-17-17-30-13 13-11 24 11 35 12l-5 1zM28 124c11-7 27-16 38-2 13-6 22-20 33-30 11-9 19-20 31-29 4-12-21-16-30-8-10 5-22 9-34 7L37 89c-5 12-29 20-16 34l7 1zm-11-12h-1zm207-34h-1zM4 131z"/></svg>