<svg xmlns="http://www.w3.org/2000/svg" width="230mm" height="200mm" viewBox="0 0 230 200"><path d="M29 189c-9-3-20-3-17-15-2-11-1-22-2-34v-30c-2-13 1-27-1-40 0-12 0-38 2-50 4-8 14-10 22-10l30-1h66c9-2 20 1 30 0 8 0 14-2 23 0 9-3 21-2 28 4 7 5 10 19 11 27v28c0 14-2 27-1 41 2 12-1 25 0 36-1 10 2 26-3 34-7 6-15 7-23 8-14 2-24-1-38 1-8-2-14-1-23-1-12-1-18 0-26 1H73c-13 2-22 0-32 0-4-1-8 0-12 1zm46-10h32c10-2 20 0 30-1h32c11-1 18 0 29-2 10 0 13-11 12-20 2-10 1-20 1-30V98l1-26-2-32c1-9-5-20-13-21h-52c-10 0-18-2-27-1H89l-31 2c-11 1-22-1-31 3-9 5-6 29-7 38 2 16 0 32 0 49 1 9 3 17 2 27l2 30c4 8 1 9 8 11 11-2 34 2 43 1zm31-12c-16-3-31-5-40-18-4-9-7-19-6-29 1-8 1-14 6-21 3-8 12-13 16-21 3-8 0-16 2-26 3-10 11-17 21-19 8-4 21-3 29 1 7 2 13 8 16 14 4 7 4 16 5 24 0 10 3 7 9 15 10 10 16 25 15 37-1 10-6 20-12 28-5 7-15 10-22 13-14 3-25 2-39 2zm18-8l18-2c9-4 18-9 22-18 5-7 4-12 5-19 0-11-4-15-7-21-7-9-9-12-22-17-7-4-14-4-22-4-10-1-17 2-25 6-7 3-14 10-18 17-8 12-5 14-7 22 2 8 2 18 9 23 6 8 15 8 23 11 8 1 19 3 24 2zm3-15c11-2 14-5 20-14 2-8 4-16-2-23s-16-12-25-11c-13-3-28 7-30 17-5 9 1 24 11 29 17 4 19 3 26 2zm-12-13c-8 1-19-15 0-19 2-4 3-11 7 0 9 2 14 8 8 16-4 3-10 4-15 3zm31-57c1-8-1-16-4-23-3-6-11-10-17-11-9-3-22 1-28 8-6 6-4 15-6 25 15-6 41-7 55 1z"/></svg>