<svg xmlns="http://www.w3.org/2000/svg" width="230mm" height="200mm" viewBox="0 0 230 200"><path d="M29 189c-9-3-20-3-17-15-2-11-1-22-2-34v-30c-2-13 1-27-1-40 0-12 0-38 2-50 4-8 14-10 22-10l30-1h66c9-2 20 1 30 0 8 0 14-2 23 0 9-3 21-2 28 4 7 5 10 19 11 27v28c0 14-2 27-1 41 2 12-1 25 0 36-1 10 2 26-3 34-7 6-15 7-23 8-14 2-24-1-38 1-8-2-14-1-23-1-12-1-18 0-26 1H73c-13 2-22 0-32 0-4-1-8 0-12 1zm46-9c11 1 21-2 32-1 10-2 20 0 30-1h32c11-1 18 0 29-2 10 0 15-11 14-20 2-10-1-20-1-30V98l1-26-2-32c1-9-5-20-13-21h-52c-10 0-18-2-27-1H89l-31 2c-11 1-22-1-31 3-9 5-8 30-9 39 2 16 0 32 0 49 1 9 3 17 2 27l2 30c4 8 3 9 10 11 11-2 34 2 43 1zm31-13c-15-1-31-5-40-18-4-9-7-19-6-29 1-8 1-14 6-21 3-8 12-13 16-21 3-8 0-16 2-26 3-10 11-17 21-19 8-4 21-3 29 1 7 2 13 8 16 14 4 7 4 16 5 24-3 10 11 12 15 19 4 10 10 21 9 33-1 10-6 20-12 28-5 7-15 10-22 13-9 3-19 2-29 2h-10zm9-5l28-4c9-4 19-8 23-17 5-7 5-14 6-21 2-8-4-15-7-21-6-8-14-14-24-14-7-4-16-4-24-5-8 3-18 1-26 5-7 3-14 8-18 15-7 7-5 16-7 24 2 8 3 19 10 24 6 8 16 9 24 12 5 0 10 3 15 2zm9-6c1-9-12-8-13 0-2-3-4-13-9-7 0 6-9 7-5 0 3-8-7-5-10-2 0-3 6-10-3-11-4 5-10 1-3-4 5-5-1-9-6-7-6-7 14-1 9-10-8 2-5-9 1-4 11 2-5-13 5-10 4 6 8-2 5-6 6 4 15 4 16-6 2 4 5 9 10 5 3-12 9 9 14 2-1-7 10-3 6 3 3 5 11-5 10 3-2 7 6 11 10 7 1 4-9 10-1 14 8-2 3 6-1 5-6 4 10 11 0 10-8-3-8 5-4 9-3 6-8-8-13-1-4 1 2 12-5 7 0-7-11-7-9 1-1 2-3 3-4 2zm5-14c8-2 18-3 21-12 5-8-3-16-10-20-6-7-16-5-24-5-9 1-20 3-22 13-5 9 3 20 13 20 7 2 15 4 22 4zm-10-6c-8 1-16-12-7-18 4-2 8-18 12-7 8 3 15 12 9 20-3 4-9 6-14 5zM98 75c6-6 2-21 10-26 6-6 16-8 22 0 3 6 7 7 7 14-1 9 11 16 10 7 1-8-2-15-5-22-3-6-11-9-17-11-9-2-23 2-28 8-8 7-4 17-6 27 0 3 5 3 7 3zm35-10c-3-7-15-15-22-9-4 4-10 17 2 16 12-4 24 2 20-7z"/></svg>