<svg xmlns="http://www.w3.org/2000/svg" width="230mm" height="200mm" viewBox="0 0 230 200"><path d="M11 174c-3-8-1-18-1-27-1-9 0-18-2-27 2-10 0-20 0-30 0-13 2-25 1-38 3-10-5-32 8-37 11-7 23-5 36-6 10 1 21 2 31 0h35c15 0 29 1 44-2 12 1 25 3 38 2 8-1 15 3 17 13 0 10 2 19 1 30v39c-1 10 1 20 1 29v30c-1 8 2 29-9 35l-33 3h-60c-10 2-19 1-29 1-10-1-19-2-29-1-10 0-19 2-29 1-20 0-20-8-20-15zm14 3c11-1 20 2 30-1 9 3 19 1 29 2l27-2c9-1 18 4 28 2l36-1c10-1 22 2 30-4 9-5 5-27 5-35 2-9-1-20 0-28 1-7 2-16-8-14-10 0-12 19-23 11-7 8-8 20-15 28-3 6-10 21-18 14 6-7 19-17 13-26-5-10-15-17-17-28-1-13-11-21-22-24-9-1-20 4-24 13-5 9-12 17-18 26-4 6-13 10-4 18 5 10 16 18 28 16 8-3 23 15 9 11-6-8-17-3-26-7-9-3-13-14-19-21-4-8-9-23-22-19-6-2-6-17-16-10-8 2-14 6-10 16v27l2 23c1 3-1 9 5 13zm86-31c0-1 1 1 0 0zm-15-2c0-1 0 1 0 0zm69-24c8-5 4-24 16-20 9 4 14-19 26-9 6 5 3-13 4-18-10-2-20 0-29 0-12 0-24 2-36 1-10 2 5 14 2 21 5 9 11 18 17 25zm-99-7c10-5 13-17 21-25 2-4 9-14-1-10-11-2-22-1-33-1-10 2-20-2-29 3-9-2-9 21 2 12 8-7 17 0 20 9 9-5 15 7 20 12zm29-39c8-8 20-11 30-9 9 8 21 1 32 2l44-1c4-4 12 7 9-3-1-11-3-21-2-31 1-14-12-11-23-13-8 1-18 2-27 1-16-1-32-2-48 0H85l-30 1c-10 2-20-2-29 4-8 7-4 24-7 34 1 6-3 16 7 12h49c6 1 14-1 20 3zm23-19c-5 1-19-8-7-7 5-1 19-4 12 5zm-77-1c-8 4-15-11-5-7 11 2 22-6 33-1 7-1 20-4 24 3-8 6-18 1-26 4-9-5-17 0-26 1zm112-4c-5-4-23 0-11-9 7-2 12 6 18-1 11 3 21-2 31 2 7 8-8 6-12 4-9 3-17-2-26 4zm18-9c0-1 0 1 0 0z"/></svg>