<svg xmlns="http://www.w3.org/2000/svg" width="230mm" height="200mm" viewBox="0 0 230 200"><path d="M10 78c2-9 1-19 1-28 0-8 0-27 3-34 6-7 14-7 23-6h32l29-1h28l32-1 28 1c10 0 23-1 30 6 6 7 5 16 6 24-2 7 0 17-1 27l1 33v34c-1 12 0 24-2 37s-8 14-18 15c-8 3-19 1-36 3h-26c-11-1-21-2-32-1-10 1-21 2-31 1-9-1-19 0-28 1-11 1-20-2-29-5-7-5-12-9-9-19v-30c-1-14 1-21-1-32-2-8 1-12 0-25zm10-18v34c3 11 1 22 1 34 0 14-1 27 1 41 2 9 15 8 23 8l30 1c16 0 32-2 48-1 12 0 23 2 36-1 11 2 18 0 26 0 8 2 20 2 25-7 5-13 4-24 3-35-2-12 1-25-1-38 0-12-2-23 0-34 1-12-2-23-3-34-3-9-14-10-22-10h-59l-35 2c-10 1-20-1-31 1-9 0-18-3-27 0-7 1-14 1-14 11l-1 28zm33 86c10 0 19 2 29 1h32l32 1h28c9 2 21-3 28 3 5 13-13 7-20 9l-46 1-28-1H64c-8-1-20 2-28-4-6-9 9-10 17-10zm-4-22c1-9-1-15 1-23l-1-25c2-8 0-20 1-27-2-10 5-13 10-13h24l33 2c10-1 20-2 31-1 8 1 18-1 28 1 11-3 11 10 10 18-1 10 0 20 1 30v39c2 12-11 8-19 8-10 1-21-1-32 1-10-2-21 0-32 0H74c-17-1-22 2-25-10zm8-32l1 28c1 9 26 2 32 4 4-7 3-20 8-29 12-17 19-9 18-14-11 0-16-17-10-25 2-3 11-8 11-8 4-2 4-3-3-3-10 0-24-2-34-1-8 0-22-4-22 5l-1 25v18zm42 32c11 2 33 0 43 1v-16c-2-8-8-19-21-20-18 1-19 11-20 20l-2 15zm13-53c3 8 21 5 21-4-2-16-22-15-24-3 0 0 1 5 3 7zm10-23c9 2 11 6 13 8 8 14-1 25-10 25-1 4 7-1 21 17 3 6 3 25 7 26 7 1 5 3 14 1 7 0 12 2 12-4 0-17 1-20-1-30 0-18 2-28 1-38-3-11-17-6-27-8-9 1-29-4-30 3zm-26 99c1 0-1 0 0 0z"/></svg>