<svg xmlns="http://www.w3.org/2000/svg" width="230mm" height="200mm" viewBox="0 0 230 200"><path d="M41 193c-9-2-26 2-29-10 2-12-1-19 0-35V83c0-11 1-22-1-33 3-11-7-34 7-39 9-5 21-2 32-3h30l33-1 28-1h40c39-1 42 4 41 30v65c1 16-1 21 2 31l-1 28c2 13 0 28-9 30l-29 2-36-1-29 1c-12 0-21-2-33 0H59c-5 1-12 2-18 1zm0-11h34c10-2 20 1 28-1l29-1 34 1 39-2c11-2 8-20 8-29v-28c1-14-2-28-3-43 2-21 2-21 1-37-2-9 3-15-3-22-9-5-29-2-37-4-24 2-36 0-54 1l-36 1c-11 1-27-1-37 1-11 2-17-1-20 9-3 11-1 40-3 52l1 21v29c0 21-1 27 4 42-1 6 9 11 15 10zm71-11c-10 0-20-1-29-6-13-5-21-18-27-30-3-10-8-15-7-25-1-9 1-17 2-26 3-9 8-17 13-25 6-6 10-14 18-17 8-6 18-9 27-12 10-5 20-2 30 0 11 5 23 11 32 19 11 10 22 23 24 38 3 12 2 24-1 36-5 12-7 22-20 31-11 7-17 10-28 14-9 2-19 2-29 3zm-29-69c2 2 6 8 10 6 9-6 21-9 29 1 6 9-3 20-7 28v24c1 6 15 1 21 0 12-2 23-7 32-14s15-17 19-27c4-11 5-24 1-35-2-3-27-4-11 4 3 8 3 14-2 24l-7 8c-2 1-4 4-5 7l-3 6s-4 11-6 6c-2-11-14-18-16-29-5-9-3-22 5-29-7-6-16-17-4-24 8-6 19-5 17-12-10-7-22-11-32-11h-7c-9 1-12 4-14 4-4 2-14 3-14 8 3 11 21 11 28 17 5 7 5 15-6 21-8 4-14 1-19 4-4 3-13 11-9 13zm-3-11c4-7 13-9 20-12 18-3 12-15-6-16-13 0-8-24-18-8-9 9-12 20-18 32 0 10 10 9 16 11 3 1 5-4 6-7zm-11 11c-11-2-16-7-13 9 1 14 6 19 11 27 6 10 14 19 25 23 5 2 10 4 15 2 2-4 1-10 0-14-5-9-9-9-11-10-6-2-11-12-11-14 1-10-2-13-6-17-4-5-6-5-10-6zm40 39c-2-10 9-15 9-24-2-13-20-6-24-2s-3 17 5 18c5 1 9 8 10 8zm49-16c3-10 12-14 14-24 5-12-10-17-18-13-6 0-7-3-10 3l-2 9c0 3 2 9 5 14l7 9c1 3 3 4 4 2zm-4-45c10-5 19-7 30-4-1-8-7-10-12-17-7-9-15-1-23 1-10 4-9 7-4 14 2 3 6 5 9 6zM22 107s0 1 0 0zm-1 85c1 0 1 1 0 0z"/></svg>