<svg xmlns="http://www.w3.org/2000/svg" width="230mm" height="200mm" viewBox="0 0 230 200"><path d="M41 193c-9-2-26 2-29-10 2-12-1-19 0-35v-35-30c0-11 1-22-1-33 3-11-7-34 7-39 9-5 21-2 32-3h30l33-1 28-1h40c39-1 42 4 41 30v65c1 16-1 21 2 31l-1 28c2 13 0 28-9 30l-29 2-36-1-29 1c-12 0-21-2-33 0H59c-5 1-12 2-18 1zm0-11h34c10-2 20 1 28-1l29-1 34 1 39-2c11-2 8-20 8-29v-28c1-14-2-28-3-43 2-21 2-21 1-37-2-9 3-15-3-22-9-5-29-2-37-4-24 2-36 0-54 1l-36 1c-11 1-27-1-37 1-11 2-17-1-20 9-3 11-1 40-3 52l1 21v29c0 21-1 27 4 42-1 6 9 11 15 10zm71-11c-10 0-20-1-29-6-13-5-21-18-27-30-3-10-8-15-7-25-1-9 1-17 2-26 3-9 8-17 13-25 6-6 10-14 18-17 8-6 18-9 27-12 10-5 20-2 30 0 11 5 23 11 32 19 11 10 22 23 24 38 3 12 2 24-1 36-5 12-8 24-20 31-6 9-17 12-28 14-9 2-19 2-29 3zm-3-8c-4-4 0-7 1-8-5 1-3-12-10-12-1-2 5-5-1-5-4 5-12-8-15-13 0-8 1-11-2-15-6-2-4-8-2-6 3 2 6 11 8 6 10-3 24-9 32 0 6 9-2 17-6 25-1 8 2 16 0 24 1 10 16 3 22 2 12-2 22-8 31-15s16-16 20-26c4-11 5-24 1-35-2-3-19-4-10 3 2 10-2 20-3 30 1 7-10 5-7 7 0 5-4 3-5 1-3 5 0 4-4 7 6-2-2 9-1 4-2-11-15-15-17-26-5-9-4-20 4-27-7-6-18-19-6-26 3-8 20-5 18-12-10-7-22-10-34-7-5 2-19 7-7 0 5-6-11 0-13 0-4 2-19 5-9 10 3 11 16 9 23 15 5 7 1 16-5 20-8 4-18 5-23 12-2 3 0 16-3 10-6 1-3-12-4-17 3-8 15-4 21-8 14 0 9-19-3-17-11-1-14-25-24-9-9 9-12 23-18 35 0 10 16 7 19 12-5-1 3 5-3 3-5-1 0-5-6-2-3 3 0-5-5 1-5-6-7 2-5 8-3 9 3 18 9 26 6 10 14 19 25 23 5 2 12 4 17 2zm0-22c-2-10 7-17 7-26-4-5-17-3-21 2 2 5-7 4-3 1-2 4-3 15 6 13 5 1 10 10 11 10zm49-16c3-10 12-14 14-24 5-12-11-15-19-11-6 0-10 5-14 8 3 0 7-3 3 1 4 3-2 12 4 13 2 5 2 8 8 10 0 1 3 5 4 3zm-63-7c0-1 0 0 0 0zm59-34c10-5 21-9 33-3-1-8-8-15-13-22-7-9-19-2-27 0-10 4-9 15 0 19 2 3 4 5 7 6zM22 107s0 1 0 0zm-1 85c1 0 1 1 0 0z"/></svg>